# xmcd CD database file
#
# Track frame offsets:
#	150
#	16623
#	40098
#	52346
#	66692
#	90503
#	104151
#	120415
#	134391
#	148947
#	172537
#
# Disc length: 2509 seconds
#
# Revision: 1
# Processed by: cddbd v1.5.2PL0 Copyright (c) Steve Scherf et al.
# Submitted via: CDex 1.70beta2
#
DISCID=9909cb0b
DTITLE=The String Quartet - Tribute to Diana Krall
DYEAR=2003
DGENRE=Jazz
TTITLE0=Hit That Jive Jack
TTITLE1=Only Trust Your Heart
TTITLE2=Let's Fall In Love
TTITLE3=Devil May Care
TTITLE4=Is You Is Or Is You Ain't (My Baby)
TTITLE5=Gee Baby, Ain't I Good To You
TTITLE6=Detroit Blues
TTITLE7=How Deep Is the Ocean
TTITLE8=This Can't Be Love
TTITLE9=Peel Me a Grape
TTITLE10=My Love
EXTD=YEAR: 2003
EXTT0=
EXTT1=
EXTT2=
EXTT3=
EXTT4=
EXTT5=
EXTT6=
EXTT7=
EXTT8=
EXTT9=
EXTT10=
PLAYORDER=
